<svg width="40" height="40" viewBox="0 0 40 40" fill="none" xmlns="http://www.w3.org/2000/svg">
<rect width="40" height="40" rx="20" fill="#195CA2"/>
<path fill-rule="evenodd" clip-rule="evenodd" d="M20 7C27.1798 7 33 12.8202 33 20C33 27.1797 27.1798 33 20 33C12.8203 33 7 27.1797 7 20C7 12.8202 12.8203 7 20 7ZM21.3028 18.7H18.7028V26.5H21.3028V18.7ZM20.0132 13.175C19.0654 13.175 18.3778 13.8587 18.3778 14.782C18.3778 15.7426 19.0473 16.425 20.0132 16.425C20.9416 16.425 21.6278 15.7426 21.6278 14.8C21.6278 13.8587 20.9416 13.175 20.0132 13.175Z" fill="white"/>
</svg>
