<svg width="23" height="23" viewBox="0 0 23 23" fill="none" xmlns="http://www.w3.org/2000/svg">
<rect width="23" height="23" rx="11.5" fill="#195CA2"/>
<g clip-path="url(#clip0_1771_9833)">
<path fill-rule="evenodd" clip-rule="evenodd" d="M14.885 11.4974L18.2725 8.11334C19.2071 7.18065 19.2071 5.66209 18.2725 4.72939C17.3367 3.79072 15.8202 3.79072 14.885 4.72939L11.4981 8.11334L8.11127 4.72939C7.17665 3.79072 5.66022 3.79072 4.7244 4.72939C3.78978 5.66209 3.78978 7.18065 4.7244 8.11334L8.11127 11.4974L4.7244 14.8874C3.78978 15.8201 3.78978 17.3387 4.7244 18.2714C5.66022 19.2101 7.17665 19.2101 8.11127 18.2714L11.4981 14.8874L14.885 18.2714C15.8202 19.2101 17.3367 19.2101 18.2725 18.2714C19.2071 17.3387 19.2071 15.8201 18.2725 14.8874L14.885 11.4974Z" fill="white"/>
</g>
<defs>
<clipPath id="clip0_1771_9833">
<rect width="14.95" height="14.95" fill="white" transform="translate(4.02539 4.0249)"/>
</clipPath>
</defs>
</svg>
