<svg width="40" height="40" viewBox="0 0 40 40" fill="none" xmlns="http://www.w3.org/2000/svg">
<rect width="40" height="40" rx="20" fill="#195CA2"/>
<g clip-path="url(#clip0_1754_1889)">
<path fill-rule="evenodd" clip-rule="evenodd" d="M29.1 21.2382H25.2C23.0459 21.2382 21.3 22.901 21.3 24.9525V28.6668C21.3 30.7183 23.0459 32.381 25.2 32.381H29.1C31.2541 32.381 33 30.7183 33 28.6668V24.9525C33 22.901 31.2541 21.2382 29.1 21.2382ZM14.8 21.2382H10.9C8.7459 21.2382 7 22.901 7 24.9525V28.6668C7 30.7183 8.7459 32.381 10.9 32.381H14.8C16.9541 32.381 18.7 30.7183 18.7 28.6668V24.9525C18.7 22.901 16.9541 21.2382 14.8 21.2382ZM29.1 7.61914H25.2C23.0459 7.61914 21.3 9.2819 21.3 11.3334V15.0477C21.3 17.0992 23.0459 18.762 25.2 18.762H29.1C31.2541 18.762 33 17.0992 33 15.0477V11.3334C33 9.2819 31.2541 7.61914 29.1 7.61914ZM18.7 11.3334V15.0477C18.7 17.0992 16.9541 18.762 14.8 18.762H10.9C8.7459 18.762 7 17.0992 7 15.0477V11.3334C7 9.2819 8.7459 7.61914 10.9 7.61914H14.8C16.9541 7.61914 18.7 9.2819 18.7 11.3334Z" fill="white"/>
</g>
<defs>
<clipPath id="clip0_1754_1889">
<rect width="26" height="26" fill="white" transform="translate(7 7)"/>
</clipPath>
</defs>
</svg>
