<svg width="42" height="40" viewBox="0 0 42 40" fill="none" xmlns="http://www.w3.org/2000/svg">
<rect width="42" height="40" rx="20" fill="#195CA2"/>
<path d="M12.4717 13.734C13.7214 13.734 14.7345 12.7209 14.7345 11.4712C14.7345 10.2216 13.7214 9.2085 12.4717 9.2085C11.2221 9.2085 10.209 10.2216 10.209 11.4712C10.209 12.7209 11.2221 13.734 12.4717 13.734Z" fill="white"/>
<path d="M12.4717 30.7916C13.7214 30.7916 14.7345 29.7785 14.7345 28.5289C14.7345 27.2792 13.7214 26.2661 12.4717 26.2661C11.2221 26.2661 10.209 27.2792 10.209 28.5289C10.209 29.7785 11.2221 30.7916 12.4717 30.7916Z" fill="white"/>
<path d="M12.4717 22.2628C13.7214 22.2628 14.7345 21.2497 14.7345 20.0001C14.7345 18.7504 13.7214 17.7373 12.4717 17.7373C11.2221 17.7373 10.209 18.7504 10.209 20.0001C10.209 21.2497 11.2221 22.2628 12.4717 22.2628Z" fill="white"/>
<path d="M30.7465 9.2085H18.2143C17.6375 9.2085 17.1699 9.67606 17.1699 10.2528V12.6897C17.1699 13.2665 17.6375 13.7341 18.2143 13.7341H30.7465C31.3233 13.7341 31.7909 13.2665 31.7909 12.6897V10.2528C31.7909 9.67606 31.3233 9.2085 30.7465 9.2085Z" fill="white"/>
<path d="M30.7465 26.2661H18.2143C17.6375 26.2661 17.1699 26.7337 17.1699 27.3105V29.7473C17.1699 30.3241 17.6375 30.7917 18.2143 30.7917H30.7465C31.3233 30.7917 31.7909 30.3241 31.7909 29.7473V27.3105C31.7909 26.7337 31.3233 26.2661 30.7465 26.2661Z" fill="white"/>
<path d="M30.7465 17.7373H18.2143C17.6375 17.7373 17.1699 18.2049 17.1699 18.7816V21.2185C17.1699 21.7953 17.6375 22.2629 18.2143 22.2629H30.7465C31.3233 22.2629 31.7909 21.7953 31.7909 21.2185V18.7816C31.7909 18.2049 31.3233 17.7373 30.7465 17.7373Z" fill="white"/>
</svg>
